<svg width="157" height="172" viewBox="0 0 157 172" fill="none" xmlns="http://www.w3.org/2000/svg">
<path d="M106.043 153.527C99.0563 152.462 92.3356 151.276 85.1073 153.212C74.3736 156.14 64.9212 162.36 53.8732 164.949C42.0758 167.684 29.2147 167.78 17.1514 168.337C13.6218 168.506 17.4415 172.983 14.3954 171.168C3.68592 164.78 2.83979 150.235 1.84861 139.321C-0.78269 114.104 0.0306233 88.6453 4.26611 63.6478C8.32751 41.8678 12.534 21.2252 33.6387 10.0932C49.014 1.9862 70.6265 -2.85381 87.4765 3.14779C104.326 9.14939 118.396 24.5648 124.271 41.6258C130.774 60.5018 132.901 79.644 143.828 96.9228C148.663 104.546 154.635 111.975 155.916 120.905C157.318 131.674 150.936 142.516 141.774 148.324C132.611 154.132 121.176 155.584 110.346 154.132C108.847 153.962 107.445 153.744 106.043 153.527Z" fill="white"/>
</svg>
