<svg width="410" height="460" viewBox="0 0 410 460" fill="none" xmlns="http://www.w3.org/2000/svg">
<path d="M394.488 0.319203H54.0316C50.0176 0.312723 46.1644 1.89778 43.3148 4.72766C40.4652 7.55755 38.8511 11.402 38.8255 15.42V119.214L0.145508 166.646L38.8255 152.9V444.68C38.8255 448.717 40.4276 452.588 43.2793 455.443C46.131 458.298 49.9987 459.901 54.0316 459.901H394.488C398.521 459.901 402.389 458.298 405.24 455.443C408.092 452.588 409.694 448.717 409.694 444.68V15.42C409.662 11.4039 408.046 7.56323 405.198 4.73471C402.35 1.90618 398.5 0.319076 394.488 0.319203Z" fill="white"/>
</svg>
