<svg width="19" height="19" viewBox="0 0 19 19" fill="none" xmlns="http://www.w3.org/2000/svg">
<path d="M1.94389 18.7566C1.78696 18.7631 1.6304 18.7363 1.48456 18.6779C1.33872 18.6195 1.20689 18.5309 1.09775 18.4178C0.98446 18.3053 0.894559 18.1715 0.833192 18.024C0.771826 17.8766 0.740234 17.7184 0.740234 17.5587C0.740234 17.399 0.771826 17.2408 0.833192 17.0934C0.894559 16.9459 0.98446 16.8121 1.09775 16.6996L16.6181 1.26C16.8441 1.03829 17.1478 0.914108 17.4642 0.914108C17.7806 0.914108 18.0844 1.03829 18.3103 1.26C18.4236 1.37248 18.5135 1.50631 18.5749 1.65376C18.6363 1.80121 18.6679 1.95936 18.6679 2.1191C18.6679 2.27883 18.6363 2.43698 18.5749 2.58443C18.5135 2.73188 18.4236 2.86571 18.3103 2.97819L2.79003 18.5146C2.67286 18.6104 2.53735 18.6813 2.39186 18.7229C2.24637 18.7645 2.09396 18.776 1.94389 18.7566Z" fill="#D1D3D4"/>
</svg>
