<svg width="35" height="35" viewBox="0 0 35 35" fill="none" xmlns="http://www.w3.org/2000/svg">
<path d="M17.9454 34.6488C14.7343 34.6665 11.5844 33.7693 8.86366 32.0618C6.14292 30.3544 3.96364 27.9074 2.58034 25.0064C1.19704 22.1055 0.666834 18.8704 1.05164 15.6791C1.43645 12.4877 2.72038 9.47186 4.75349 6.98371C6.78661 4.49555 9.48498 2.63784 12.5334 1.62751C15.5819 0.61719 18.8546 0.495972 21.9693 1.27802C25.084 2.06008 27.9121 3.71311 30.1233 6.04406C32.3345 8.37501 33.8376 11.2877 34.457 14.4418C35.3225 18.813 34.4326 23.3496 31.98 27.0685C29.5274 30.7875 25.7097 33.3892 21.3541 34.31C20.2311 34.5305 19.0898 34.6439 17.9454 34.6488ZM17.9454 3.4066C16.9787 3.39647 16.0138 3.49385 15.0686 3.69699C12.2389 4.24124 9.63531 5.61681 7.58975 7.64829C5.54419 9.67976 4.1494 12.2751 3.58326 15.1033C3.01711 17.9315 3.30525 20.8644 4.41095 23.528C5.51665 26.1916 7.3898 28.4651 9.79151 30.0588C12.1932 31.6524 15.0147 32.4939 17.8961 32.4759C20.7774 32.4579 23.5882 31.5812 25.9698 29.9577C28.3515 28.3342 30.1961 26.0374 31.2685 23.3602C32.3409 20.683 32.5925 17.7467 31.9911 14.9258C31.3099 11.6963 29.5498 8.7955 27.001 6.70153C24.4521 4.60757 21.2667 3.44542 17.9696 3.4066H17.9454Z" fill="#3C4242"/>
</svg>
