<svg width="9" height="5" viewBox="0 0 9 5" fill="none" xmlns="http://www.w3.org/2000/svg">
<path d="M1.98205 4.46602C1.76068 4.47074 1.54258 4.41196 1.3535 4.29662C1.2172 4.21688 1.0982 4.11067 1.00348 3.98424C0.908771 3.85781 0.840252 3.71373 0.801965 3.56042C0.763677 3.40711 0.756395 3.24768 0.780533 3.09151C0.80467 2.93534 0.859747 2.78558 0.942527 2.65102C1.28226 2.10727 1.72656 1.63652 2.2496 1.26615C2.77265 0.895782 3.36402 0.633165 3.98934 0.493562C4.61465 0.353958 5.26145 0.340147 5.89214 0.452943C6.52283 0.565738 7.12483 0.802893 7.66317 1.15061C7.90728 1.31788 8.08162 1.56893 8.15321 1.85625C8.2248 2.14357 8.18866 2.44719 8.05162 2.70962C7.91459 2.97205 7.68618 3.17507 7.40964 3.28022C7.13311 3.38538 6.82766 3.38537 6.55113 3.2802C4.13363 2.046 3.11828 3.6916 3.02158 3.8852C2.9131 4.06358 2.76036 4.21083 2.5782 4.31261C2.39604 4.41438 2.19066 4.46723 1.98205 4.46602Z" fill="#3C4242"/>
</svg>
