<svg width="33" height="7" viewBox="0 0 33 7" fill="none" xmlns="http://www.w3.org/2000/svg">
<path d="M2.02856 6.59722C1.70798 6.61647 1.39291 6.50745 1.15262 6.29415C0.912334 6.08084 0.766528 5.78073 0.747293 5.45982C0.728058 5.1389 0.836969 4.82348 1.05005 4.58295C1.26314 4.34241 1.56294 4.19647 1.88352 4.17722L30.8935 0.619815C31.0511 0.599639 31.2111 0.611384 31.3641 0.654378C31.517 0.697372 31.6598 0.770721 31.7838 0.870064C31.9079 0.969408 32.0107 1.09273 32.0862 1.23266C32.1616 1.37259 32.2082 1.52628 32.2232 1.6846C32.2643 2.00222 32.178 2.32324 31.9832 2.57728C31.7883 2.83131 31.5008 2.99764 31.1836 3.03982L2.17363 6.57301L2.02856 6.59722Z" fill="#3C4242"/>
</svg>
